<?xml version="1.0" encoding="UTF-8" standalone="no"?>
<!DOCTYPE svg PUBLIC "-//W3C//DTD SVG 1.1//EN"
 "http://www.w3.org/Graphics/SVG/1.1/DTD/svg11.dtd">
<!-- Generated by graphviz version 2.43.0 (0)
 -->
<!-- Title: %3 Pages: 1 -->
<svg width="1757pt" height="404pt"
 viewBox="0.00 0.00 1756.82 404.00" xmlns="http://www.w3.org/2000/svg" xmlns:xlink="http://www.w3.org/1999/xlink">
<g id="graph0" class="graph" transform="scale(1 1) rotate(0) translate(4 400)">
<title>%3</title>
<polygon fill="white" stroke="transparent" points="-4,4 -4,-400 1752.82,-400 1752.82,4 -4,4"/>
<!-- [root] aws_autoscaling_group.app (expand) -->
<g id="node1" class="node">
<title>[root] aws_autoscaling_group.app (expand)</title>
<polygon fill="none" stroke="black" points="797.23,-252 585.23,-252 585.23,-216 797.23,-216 797.23,-252"/>
<text text-anchor="middle" x="691.23" y="-230.3" font-family="Times,serif" font-size="14.00">aws_autoscaling_group.app</text>
</g>
<!-- [root] aws_launch_configuration.app (expand) -->
<g id="node4" class="node">
<title>[root] aws_launch_configuration.app (expand)</title>
<polygon fill="none" stroke="black" points="742.23,-180 512.23,-180 512.23,-144 742.23,-144 742.23,-180"/>
<text text-anchor="middle" x="627.23" y="-158.3" font-family="Times,serif" font-size="14.00">aws_launch_configuration.app</text>
</g>
<!-- [root] aws_autoscaling_group.app (expand)&#45;&gt;[root] aws_launch_configuration.app (expand) -->
<g id="edge1" class="edge">
<title>[root] aws_autoscaling_group.app (expand)&#45;&gt;[root] aws_launch_configuration.app (expand)</title>
<path fill="none" stroke="black" d="M675.41,-215.7C667.66,-207.22 658.19,-196.86 649.71,-187.58"/>
<polygon fill="black" stroke="black" points="652.2,-185.12 642.87,-180.1 647.03,-189.85 652.2,-185.12"/>
</g>
<!-- [root] aws_subnet.private (expand) -->
<g id="node7" class="node">
<title>[root] aws_subnet.private (expand)</title>
<polygon fill="none" stroke="black" points="916.73,-180 761.73,-180 761.73,-144 916.73,-144 916.73,-180"/>
<text text-anchor="middle" x="839.23" y="-158.3" font-family="Times,serif" font-size="14.00">aws_subnet.private</text>
</g>
<!-- [root] aws_autoscaling_group.app (expand)&#45;&gt;[root] aws_subnet.private (expand) -->
<g id="edge2" class="edge">
<title>[root] aws_autoscaling_group.app (expand)&#45;&gt;[root] aws_subnet.private (expand)</title>
<path fill="none" stroke="black" d="M727.44,-215.88C747.49,-206.39 772.6,-194.51 793.95,-184.42"/>
<polygon fill="black" stroke="black" points="795.6,-187.51 803.14,-180.07 792.61,-181.18 795.6,-187.51"/>
</g>
<!-- [root] aws_instance.bastion (expand) -->
<g id="node2" class="node">
<title>[root] aws_instance.bastion (expand)</title>
<polygon fill="none" stroke="black" points="567.23,-252 399.23,-252 399.23,-216 567.23,-216 567.23,-252"/>
<text text-anchor="middle" x="483.23" y="-230.3" font-family="Times,serif" font-size="14.00">aws_instance.bastion</text>
</g>
<!-- [root] aws_subnet.public (expand) -->
<g id="node8" class="node">
<title>[root] aws_subnet.public (expand)</title>
<polygon fill="none" stroke="black" points="1083.23,-180 935.23,-180 935.23,-144 1083.23,-144 1083.23,-180"/>
<text text-anchor="middle" x="1009.23" y="-158.3" font-family="Times,serif" font-size="14.00">aws_subnet.public</text>
</g>
<!-- [root] aws_instance.bastion (expand)&#45;&gt;[root] aws_subnet.public (expand) -->
<g id="edge3" class="edge">
<title>[root] aws_instance.bastion (expand)&#45;&gt;[root] aws_subnet.public (expand)</title>
<path fill="none" stroke="black" d="M567.33,-217.32C570.33,-216.86 573.31,-216.42 576.23,-216 727.87,-194.38 769.95,-203.33 925.18,-180.07"/>
<polygon fill="black" stroke="black" points="925.72,-183.53 935.09,-178.57 924.67,-176.61 925.72,-183.53"/>
</g>
<!-- [root] var.ami_id -->
<g id="node12" class="node">
<title>[root] var.ami_id</title>
<polygon fill="none" stroke="black" points="453.73,-108 370.73,-108 370.73,-72 459.73,-72 459.73,-102 453.73,-108"/>
<polyline fill="none" stroke="black" points="453.73,-108 453.73,-102 "/>
<polyline fill="none" stroke="black" points="459.73,-102 453.73,-102 "/>
<text text-anchor="middle" x="415.23" y="-86.3" font-family="Times,serif" font-size="14.00">var.ami_id</text>
</g>
<!-- [root] aws_instance.bastion (expand)&#45;&gt;[root] var.ami_id -->
<g id="edge4" class="edge">
<title>[root] aws_instance.bastion (expand)&#45;&gt;[root] var.ami_id</title>
<path fill="none" stroke="black" d="M475.03,-215.87C463.29,-191.35 441.58,-146.03 427.81,-117.26"/>
<polygon fill="black" stroke="black" points="430.94,-115.7 423.46,-108.19 424.63,-118.72 430.94,-115.7"/>
</g>
<!-- [root] var.instance_type -->
<g id="node14" class="node">
<title>[root] var.instance_type</title>
<polygon fill="none" stroke="black" points="612.73,-108 477.73,-108 477.73,-72 618.73,-72 618.73,-102 612.73,-108"/>
<polyline fill="none" stroke="black" points="612.73,-108 612.73,-102 "/>
<polyline fill="none" stroke="black" points="618.73,-102 612.73,-102 "/>
<text text-anchor="middle" x="548.23" y="-86.3" font-family="Times,serif" font-size="14.00">var.instance_type</text>
</g>
<!-- [root] aws_instance.bastion (expand)&#45;&gt;[root] var.instance_type -->
<g id="edge5" class="edge">
<title>[root] aws_instance.bastion (expand)&#45;&gt;[root] var.instance_type</title>
<path fill="none" stroke="black" d="M484.63,-215.78C486.69,-197.23 491.64,-167.24 503.23,-144 508.29,-133.85 515.7,-124.01 523.05,-115.62"/>
<polygon fill="black" stroke="black" points="525.81,-117.79 530,-108.06 520.66,-113.05 525.81,-117.79"/>
</g>
<!-- [root] aws_internet_gateway.gw (expand) -->
<g id="node3" class="node">
<title>[root] aws_internet_gateway.gw (expand)</title>
<polygon fill="none" stroke="black" points="1301.73,-180 1102.73,-180 1102.73,-144 1301.73,-144 1301.73,-180"/>
<text text-anchor="middle" x="1202.23" y="-158.3" font-family="Times,serif" font-size="14.00">aws_internet_gateway.gw</text>
</g>
<!-- [root] aws_vpc.main (expand) -->
<g id="node9" class="node">
<title>[root] aws_vpc.main (expand)</title>
<polygon fill="none" stroke="black" points="1076.23,-108 960.23,-108 960.23,-72 1076.23,-72 1076.23,-108"/>
<text text-anchor="middle" x="1018.23" y="-86.3" font-family="Times,serif" font-size="14.00">aws_vpc.main</text>
</g>
<!-- [root] aws_internet_gateway.gw (expand)&#45;&gt;[root] aws_vpc.main (expand) -->
<g id="edge6" class="edge">
<title>[root] aws_internet_gateway.gw (expand)&#45;&gt;[root] aws_vpc.main (expand)</title>
<path fill="none" stroke="black" d="M1157.22,-143.88C1131.73,-134.18 1099.66,-121.98 1072.75,-111.74"/>
<polygon fill="black" stroke="black" points="1073.69,-108.35 1063.1,-108.07 1071.2,-114.9 1073.69,-108.35"/>
</g>
<!-- [root] provider[&quot;registry.terraform.io/hashicorp/aws&quot;] -->
<g id="node11" class="node">
<title>[root] provider[&quot;registry.terraform.io/hashicorp/aws&quot;]</title>
<polygon fill="none" stroke="black" points="642.23,-36 316.97,-18 642.23,0 967.49,-18 642.23,-36"/>
<text text-anchor="middle" x="642.23" y="-14.3" font-family="Times,serif" font-size="14.00">provider[&quot;registry.terraform.io/hashicorp/aws&quot;]</text>
</g>
<!-- [root] aws_launch_configuration.app (expand)&#45;&gt;[root] provider[&quot;registry.terraform.io/hashicorp/aws&quot;] -->
<g id="edge7" class="edge">
<title>[root] aws_launch_configuration.app (expand)&#45;&gt;[root] provider[&quot;registry.terraform.io/hashicorp/aws&quot;]</title>
<path fill="none" stroke="black" d="M629.04,-143.87C631.6,-119.67 636.29,-75.21 639.34,-46.39"/>
<polygon fill="black" stroke="black" points="642.85,-46.5 640.42,-36.19 635.88,-45.77 642.85,-46.5"/>
</g>
<!-- [root] aws_launch_configuration.app (expand)&#45;&gt;[root] var.ami_id -->
<g id="edge8" class="edge">
<title>[root] aws_launch_configuration.app (expand)&#45;&gt;[root] var.ami_id</title>
<path fill="none" stroke="black" d="M575.64,-143.97C543.54,-133.37 502.31,-119.75 469.68,-108.98"/>
<polygon fill="black" stroke="black" points="470.45,-105.55 459.86,-105.73 468.25,-112.19 470.45,-105.55"/>
</g>
<!-- [root] aws_launch_configuration.app (expand)&#45;&gt;[root] var.instance_type -->
<g id="edge9" class="edge">
<title>[root] aws_launch_configuration.app (expand)&#45;&gt;[root] var.instance_type</title>
<path fill="none" stroke="black" d="M607.7,-143.7C597.85,-134.97 585.75,-124.24 575.04,-114.75"/>
<polygon fill="black" stroke="black" points="577.34,-112.12 567.53,-108.1 572.7,-117.36 577.34,-112.12"/>
</g>
<!-- [root] aws_route.internet_access (expand) -->
<g id="node5" class="node">
<title>[root] aws_route.internet_access (expand)</title>
<polygon fill="none" stroke="black" points="1304.73,-252 1099.73,-252 1099.73,-216 1304.73,-216 1304.73,-252"/>
<text text-anchor="middle" x="1202.23" y="-230.3" font-family="Times,serif" font-size="14.00">aws_route.internet_access</text>
</g>
<!-- [root] aws_route.internet_access (expand)&#45;&gt;[root] aws_internet_gateway.gw (expand) -->
<g id="edge10" class="edge">
<title>[root] aws_route.internet_access (expand)&#45;&gt;[root] aws_internet_gateway.gw (expand)</title>
<path fill="none" stroke="black" d="M1202.23,-215.7C1202.23,-207.98 1202.23,-198.71 1202.23,-190.11"/>
<polygon fill="black" stroke="black" points="1205.73,-190.1 1202.23,-180.1 1198.73,-190.1 1205.73,-190.1"/>
</g>
<!-- [root] aws_route_table_association.public (expand) -->
<g id="node6" class="node">
<title>[root] aws_route_table_association.public (expand)</title>
<polygon fill="none" stroke="black" points="1081.23,-252 815.23,-252 815.23,-216 1081.23,-216 1081.23,-252"/>
<text text-anchor="middle" x="948.23" y="-230.3" font-family="Times,serif" font-size="14.00">aws_route_table_association.public</text>
</g>
<!-- [root] aws_route_table_association.public (expand)&#45;&gt;[root] aws_subnet.public (expand) -->
<g id="edge11" class="edge">
<title>[root] aws_route_table_association.public (expand)&#45;&gt;[root] aws_subnet.public (expand)</title>
<path fill="none" stroke="black" d="M963.31,-215.7C970.62,-207.3 979.54,-197.07 987.57,-187.86"/>
<polygon fill="black" stroke="black" points="990.39,-189.94 994.33,-180.1 985.12,-185.34 990.39,-189.94"/>
</g>
<!-- [root] aws_subnet.private (expand)&#45;&gt;[root] aws_vpc.main (expand) -->
<g id="edge12" class="edge">
<title>[root] aws_subnet.private (expand)&#45;&gt;[root] aws_vpc.main (expand)</title>
<path fill="none" stroke="black" d="M883.02,-143.88C907.82,-134.18 939.01,-121.98 965.19,-111.74"/>
<polygon fill="black" stroke="black" points="966.55,-114.97 974.59,-108.07 964,-108.45 966.55,-114.97"/>
</g>
<!-- [root] var.azs -->
<g id="node13" class="node">
<title>[root] var.azs</title>
<polygon fill="none" stroke="black" points="901.23,-108 841.23,-108 841.23,-72 907.23,-72 907.23,-102 901.23,-108"/>
<polyline fill="none" stroke="black" points="901.23,-108 901.23,-102 "/>
<polyline fill="none" stroke="black" points="907.23,-102 901.23,-102 "/>
<text text-anchor="middle" x="874.23" y="-86.3" font-family="Times,serif" font-size="14.00">var.azs</text>
</g>
<!-- [root] aws_subnet.private (expand)&#45;&gt;[root] var.azs -->
<g id="edge13" class="edge">
<title>[root] aws_subnet.private (expand)&#45;&gt;[root] var.azs</title>
<path fill="none" stroke="black" d="M847.88,-143.7C851.87,-135.73 856.68,-126.1 861.1,-117.26"/>
<polygon fill="black" stroke="black" points="864.34,-118.61 865.68,-108.1 858.08,-115.48 864.34,-118.61"/>
</g>
<!-- [root] aws_subnet.public (expand)&#45;&gt;[root] aws_vpc.main (expand) -->
<g id="edge14" class="edge">
<title>[root] aws_subnet.public (expand)&#45;&gt;[root] aws_vpc.main (expand)</title>
<path fill="none" stroke="black" d="M1011.46,-143.7C1012.45,-135.98 1013.64,-126.71 1014.75,-118.11"/>
<polygon fill="black" stroke="black" points="1018.23,-118.47 1016.03,-108.1 1011.29,-117.58 1018.23,-118.47"/>
</g>
<!-- [root] aws_subnet.public (expand)&#45;&gt;[root] var.azs -->
<g id="edge15" class="edge">
<title>[root] aws_subnet.public (expand)&#45;&gt;[root] var.azs</title>
<path fill="none" stroke="black" d="M976.21,-143.88C958.15,-134.51 935.59,-122.81 916.28,-112.8"/>
<polygon fill="black" stroke="black" points="917.87,-109.69 907.38,-108.19 914.65,-115.9 917.87,-109.69"/>
</g>
<!-- [root] aws_vpc.main (expand)&#45;&gt;[root] provider[&quot;registry.terraform.io/hashicorp/aws&quot;] -->
<g id="edge16" class="edge">
<title>[root] aws_vpc.main (expand)&#45;&gt;[root] provider[&quot;registry.terraform.io/hashicorp/aws&quot;]</title>
<path fill="none" stroke="black" d="M959.89,-78.14C896.26,-66.29 793.99,-47.25 722.74,-33.99"/>
<polygon fill="black" stroke="black" points="723.37,-30.55 712.9,-32.16 722.09,-37.43 723.37,-30.55"/>
</g>
<!-- [root] var.vpc_cidr -->
<g id="node15" class="node">
<title>[root] var.vpc_cidr</title>
<polygon fill="none" stroke="black" points="1081.23,-36 985.23,-36 985.23,0 1087.23,0 1087.23,-30 1081.23,-36"/>
<polyline fill="none" stroke="black" points="1081.23,-36 1081.23,-30 "/>
<polyline fill="none" stroke="black" points="1087.23,-30 1081.23,-30 "/>
<text text-anchor="middle" x="1036.23" y="-14.3" font-family="Times,serif" font-size="14.00">var.vpc_cidr</text>
</g>
<!-- [root] aws_vpc.main (expand)&#45;&gt;[root] var.vpc_cidr -->
<g id="edge17" class="edge">
<title>[root] aws_vpc.main (expand)&#45;&gt;[root] var.vpc_cidr</title>
<path fill="none" stroke="black" d="M1022.68,-71.7C1024.69,-63.9 1027.1,-54.51 1029.33,-45.83"/>
<polygon fill="black" stroke="black" points="1032.73,-46.66 1031.83,-36.1 1025.95,-44.92 1032.73,-46.66"/>
</g>
<!-- [root] data.aws_instances.asg_instances (expand) -->
<g id="node10" class="node">
<title>[root] data.aws_instances.asg_instances (expand)</title>
<polygon fill="none" stroke="black" points="381.23,-252 123.23,-252 123.23,-216 381.23,-216 381.23,-252"/>
<text text-anchor="middle" x="252.23" y="-230.3" font-family="Times,serif" font-size="14.00">data.aws_instances.asg_instances</text>
</g>
<!-- [root] data.aws_instances.asg_instances (expand)&#45;&gt;[root] provider[&quot;registry.terraform.io/hashicorp/aws&quot;] -->
<g id="edge18" class="edge">
<title>[root] data.aws_instances.asg_instances (expand)&#45;&gt;[root] provider[&quot;registry.terraform.io/hashicorp/aws&quot;]</title>
<path fill="none" stroke="black" d="M258.58,-215.83C271.94,-182.25 306.35,-108.04 361.23,-72 388.66,-53.99 462.71,-40.44 527.91,-31.56"/>
<polygon fill="black" stroke="black" points="528.42,-35.02 537.87,-30.22 527.5,-28.08 528.42,-35.02"/>
</g>
<!-- [root] output.instance_private_ips (expand) -->
<g id="node16" class="node">
<title>[root] output.instance_private_ips (expand)</title>
<ellipse fill="none" stroke="black" cx="211.23" cy="-306" rx="211.46" ry="18"/>
<text text-anchor="middle" x="211.23" y="-302.3" font-family="Times,serif" font-size="14.00">[root] output.instance_private_ips (expand)</text>
</g>
<!-- [root] output.instance_private_ips (expand)&#45;&gt;[root] data.aws_instances.asg_instances (expand) -->
<g id="edge19" class="edge">
<title>[root] output.instance_private_ips (expand)&#45;&gt;[root] data.aws_instances.asg_instances (expand)</title>
<path fill="none" stroke="black" d="M221.37,-287.7C226.08,-279.64 231.79,-269.89 237.01,-260.98"/>
<polygon fill="black" stroke="black" points="240.18,-262.5 242.21,-252.1 234.14,-258.96 240.18,-262.5"/>
</g>
<!-- [root] output.public_subnet_ids (expand) -->
<g id="node17" class="node">
<title>[root] output.public_subnet_ids (expand)</title>
<ellipse fill="none" stroke="black" cx="1241.23" cy="-306" rx="198.76" ry="18"/>
<text text-anchor="middle" x="1241.23" y="-302.3" font-family="Times,serif" font-size="14.00">[root] output.public_subnet_ids (expand)</text>
</g>
<!-- [root] output.public_subnet_ids (expand)&#45;&gt;[root] aws_subnet.public (expand) -->
<g id="edge20" class="edge">
<title>[root] output.public_subnet_ids (expand)&#45;&gt;[root] aws_subnet.public (expand)</title>
<path fill="none" stroke="black" d="M1277.36,-288.16C1291.56,-279.51 1306.34,-267.49 1314.23,-252 1321.5,-237.75 1324.59,-228.19 1314.23,-216 1282.15,-178.25 1142.97,-188.86 1094.23,-180 1093.9,-179.94 1093.56,-179.88 1093.23,-179.82"/>
<polygon fill="black" stroke="black" points="1093.85,-176.37 1083.37,-177.99 1092.57,-183.25 1093.85,-176.37"/>
</g>
<!-- [root] output.vpc_id (expand) -->
<g id="node18" class="node">
<title>[root] output.vpc_id (expand)</title>
<ellipse fill="none" stroke="black" cx="1603.23" cy="-306" rx="145.67" ry="18"/>
<text text-anchor="middle" x="1603.23" y="-302.3" font-family="Times,serif" font-size="14.00">[root] output.vpc_id (expand)</text>
</g>
<!-- [root] output.vpc_id (expand)&#45;&gt;[root] aws_vpc.main (expand) -->
<g id="edge21" class="edge">
<title>[root] output.vpc_id (expand)&#45;&gt;[root] aws_vpc.main (expand)</title>
<path fill="none" stroke="black" d="M1579.14,-288.12C1530.76,-255.05 1417.33,-181.7 1311.23,-144 1236.87,-117.58 1146.99,-103.82 1086.56,-97.02"/>
<polygon fill="black" stroke="black" points="1086.69,-93.51 1076.37,-95.91 1085.93,-100.47 1086.69,-93.51"/>
</g>
<!-- [root] provider[&quot;registry.terraform.io/hashicorp/aws&quot;] (close) -->
<g id="node19" class="node">
<title>[root] provider[&quot;registry.terraform.io/hashicorp/aws&quot;] (close)</title>
<ellipse fill="none" stroke="black" cx="732.23" cy="-306" rx="291.65" ry="18"/>
<text text-anchor="middle" x="732.23" y="-302.3" font-family="Times,serif" font-size="14.00">[root] provider[&quot;registry.terraform.io/hashicorp/aws&quot;] (close)</text>
</g>
<!-- [root] provider[&quot;registry.terraform.io/hashicorp/aws&quot;] (close)&#45;&gt;[root] aws_autoscaling_group.app (expand) -->
<g id="edge22" class="edge">
<title>[root] provider[&quot;registry.terraform.io/hashicorp/aws&quot;] (close)&#45;&gt;[root] aws_autoscaling_group.app (expand)</title>
<path fill="none" stroke="black" d="M722.1,-287.7C717.38,-279.64 711.67,-269.89 706.45,-260.98"/>
<polygon fill="black" stroke="black" points="709.32,-258.96 701.25,-252.1 703.28,-262.5 709.32,-258.96"/>
</g>
<!-- [root] provider[&quot;registry.terraform.io/hashicorp/aws&quot;] (close)&#45;&gt;[root] aws_instance.bastion (expand) -->
<g id="edge23" class="edge">
<title>[root] provider[&quot;registry.terraform.io/hashicorp/aws&quot;] (close)&#45;&gt;[root] aws_instance.bastion (expand)</title>
<path fill="none" stroke="black" d="M672.91,-288.32C637.12,-278.26 591.33,-265.39 553.71,-254.81"/>
<polygon fill="black" stroke="black" points="554.41,-251.37 543.83,-252.04 552.51,-258.11 554.41,-251.37"/>
</g>
<!-- [root] provider[&quot;registry.terraform.io/hashicorp/aws&quot;] (close)&#45;&gt;[root] aws_route.internet_access (expand) -->
<g id="edge24" class="edge">
<title>[root] provider[&quot;registry.terraform.io/hashicorp/aws&quot;] (close)&#45;&gt;[root] aws_route.internet_access (expand)</title>
<path fill="none" stroke="black" d="M839.55,-289.22C908.11,-279.11 999.18,-265.64 1089.54,-252.1"/>
<polygon fill="black" stroke="black" points="1090.32,-255.52 1099.69,-250.58 1089.29,-248.6 1090.32,-255.52"/>
</g>
<!-- [root] provider[&quot;registry.terraform.io/hashicorp/aws&quot;] (close)&#45;&gt;[root] aws_route_table_association.public (expand) -->
<g id="edge25" class="edge">
<title>[root] provider[&quot;registry.terraform.io/hashicorp/aws&quot;] (close)&#45;&gt;[root] aws_route_table_association.public (expand)</title>
<path fill="none" stroke="black" d="M783.97,-288.23C814.51,-278.34 853.37,-265.74 885.63,-255.29"/>
<polygon fill="black" stroke="black" points="886.98,-258.53 895.42,-252.12 884.82,-251.87 886.98,-258.53"/>
</g>
<!-- [root] provider[&quot;registry.terraform.io/hashicorp/aws&quot;] (close)&#45;&gt;[root] data.aws_instances.asg_instances (expand) -->
<g id="edge26" class="edge">
<title>[root] provider[&quot;registry.terraform.io/hashicorp/aws&quot;] (close)&#45;&gt;[root] data.aws_instances.asg_instances (expand)</title>
<path fill="none" stroke="black" d="M624.21,-289.25C551.58,-278.66 455.56,-264.65 379.26,-253.53"/>
<polygon fill="black" stroke="black" points="379.51,-250.02 369.11,-252.04 378.5,-256.95 379.51,-250.02"/>
</g>
<!-- [root] root -->
<g id="node20" class="node">
<title>[root] root</title>
<ellipse fill="none" stroke="black" cx="986.23" cy="-378" rx="58.49" ry="18"/>
<text text-anchor="middle" x="986.23" y="-374.3" font-family="Times,serif" font-size="14.00">[root] root</text>
</g>
<!-- [root] root&#45;&gt;[root] output.instance_private_ips (expand) -->
<g id="edge27" class="edge">
<title>[root] root&#45;&gt;[root] output.instance_private_ips (expand)</title>
<path fill="none" stroke="black" d="M930.81,-371.99C813.05,-361.36 534.51,-336.2 360.56,-320.49"/>
<polygon fill="black" stroke="black" points="360.83,-317 350.55,-319.58 360.2,-323.97 360.83,-317"/>
</g>
<!-- [root] root&#45;&gt;[root] output.public_subnet_ids (expand) -->
<g id="edge28" class="edge">
<title>[root] root&#45;&gt;[root] output.public_subnet_ids (expand)</title>
<path fill="none" stroke="black" d="M1028.34,-365.44C1067.35,-354.73 1126.1,-338.61 1172,-326"/>
<polygon fill="black" stroke="black" points="1173.17,-329.31 1181.89,-323.29 1171.32,-322.56 1173.17,-329.31"/>
</g>
<!-- [root] root&#45;&gt;[root] output.vpc_id (expand) -->
<g id="edge29" class="edge">
<title>[root] root&#45;&gt;[root] output.vpc_id (expand)</title>
<path fill="none" stroke="black" d="M1040.18,-370.88C1140.12,-359.54 1356.03,-335.05 1489.54,-319.9"/>
<polygon fill="black" stroke="black" points="1490.27,-323.34 1499.81,-318.73 1489.48,-316.38 1490.27,-323.34"/>
</g>
<!-- [root] root&#45;&gt;[root] provider[&quot;registry.terraform.io/hashicorp/aws&quot;] (close) -->
<g id="edge30" class="edge">
<title>[root] root&#45;&gt;[root] provider[&quot;registry.terraform.io/hashicorp/aws&quot;] (close)</title>
<path fill="none" stroke="black" d="M944.29,-365.44C905.83,-354.84 848.1,-338.93 802.58,-326.39"/>
<polygon fill="black" stroke="black" points="803.34,-322.97 792.77,-323.68 801.48,-329.72 803.34,-322.97"/>
</g>
</g>
</svg>
